<svg xmlns="http://www.w3.org/2000/svg" viewBox="0 0 139 40" fill="none">
  <!-- Microsoft Logo - Official Style -->
  <g transform="translate(0, 0)">
    <!-- Red Square -->
    <path d="M0 0H23V23H0V0Z" fill="#F25022"/>
    <!-- Green Square -->
    <path d="M28 0H51V23H28V0Z" fill="#7FBA00"/>
    <!-- Blue Square -->
    <path d="M0 28H23V51H0V28Z" fill="#00A4EF"/>
    <!-- Yellow Square -->
    <path d="M28 28H51V51H28V28Z" fill="#FFB900"/>
    <!-- Microsoft Text -->
    <path d="M67 16.5C67 11.8 70.6 8 75.3 8C80 8 83.6 11.8 83.6 16.5C83.6 21.2 80 25 75.3 25C70.6 25 67 21.2 67 16.5ZM84.9 16.5C84.9 11 88.9 6.4 94.5 6.4C97.3 6.4 99.8 7.9 101 10H101.1C101.1 9.8 101.2 8.9 101.2 8.1C101.2 5.7 100.2 4 97.4 4H88.1V25H97.4C101.7 25 104.9 22.3 104.9 18.2C104.9 17.1 104.6 16.1 104.1 15.3C103.3 14 102 13.3 100.4 13.3C99.2 13.3 98.2 13.8 97.5 14.6L96.7 13.8C97.7 12.5 99.2 11.5 101 11.5C103.9 11.5 105.9 13.5 105.9 16.5C105.9 18.8 104.7 20.6 102.8 21.6V21.7C105 22.2 106.3 23.7 106.3 25.7V32H84.9V16.5ZM112.5 6V25H108V6H112.5ZM118.9 6V8.7H115.1V25H118.9V22.3H119C120.6 25 123.3 25.8 125.6 25.8C129.6 25.8 133.8 23.5 133.8 17.8C133.8 12.1 129.5 6 121.7 6H118.9ZM122.8 22.5C120.8 22.5 119.2 21.7 118.9 19.5H126.5C126.5 19.5 126.5 19.5 126.5 19.4C126.4 16.5 124.6 13.8 122.7 13.8C121.4 13.8 120.1 14.7 120.1 16.7C120.1 18.9 121.4 22.5 122.8 22.5Z" fill="#5C5C5C"/>
  </g>
</svg>